<svg width="20" height="21" viewBox="0 0 20 21" fill="none" xmlns="http://www.w3.org/2000/svg">
<g clip-path="url(#clip0_125_3095)">
<path d="M16.6667 6.67342C16.6691 5.59414 16.4093 4.53042 15.9099 3.57366C15.4104 2.6169 14.6861 1.79571 13.7992 1.18065C12.9123 0.565589 11.8894 0.17505 10.8182 0.0425888C9.74712 -0.0898728 8.65984 0.0397036 7.64985 0.420184C6.63985 0.800665 5.73733 1.42067 5.01983 2.22694C4.30233 3.0332 3.79131 4.00161 3.53068 5.04895C3.27005 6.0963 3.26759 7.19126 3.52353 8.23977C3.77947 9.28827 4.28615 10.259 5.00003 11.0684V17.9234C5.00002 18.3159 5.11087 18.7004 5.3198 19.0326C5.52874 19.3648 5.82726 19.6312 6.18099 19.8012C6.53473 19.9712 6.92928 20.0378 7.31921 19.9934C7.70915 19.949 8.0786 19.7953 8.38503 19.5501L9.74003 18.4668C9.81386 18.4078 9.90554 18.3757 10 18.3757C10.0945 18.3757 10.1862 18.4078 10.26 18.4668L11.615 19.5501C11.9215 19.7953 12.2909 19.949 12.6808 19.9934C13.0708 20.0378 13.4653 19.9712 13.8191 19.8012C14.1728 19.6312 14.4713 19.3648 14.6803 19.0326C14.8892 18.7004 15 18.3159 15 17.9234V11.0684C16.0736 9.85609 16.6664 8.29279 16.6667 6.67342ZM10 1.67342C10.9889 1.67342 11.9556 1.96667 12.7779 2.51608C13.6001 3.06548 14.241 3.84638 14.6194 4.76001C14.9979 5.67364 15.0969 6.67897 14.904 7.64888C14.711 8.61878 14.2348 9.5097 13.5356 10.209C12.8363 10.9082 11.9454 11.3844 10.9755 11.5774C10.0056 11.7703 9.00024 11.6713 8.08661 11.2928C7.17298 10.9144 6.39209 10.2735 5.84268 9.45128C5.29327 8.62903 5.00003 7.66233 5.00003 6.67342C5.00135 5.34775 5.52856 4.07675 6.46595 3.13935C7.40335 2.20196 8.67435 1.67475 10 1.67342ZM13.0975 18.2968C13.027 18.3317 12.9479 18.3456 12.8697 18.3367C12.7916 18.3278 12.7176 18.2966 12.6567 18.2468L11.3017 17.1634C10.9329 16.8664 10.4736 16.7044 10 16.7044C9.52647 16.7044 9.06715 16.8664 8.69836 17.1634L7.34419 18.2468C7.28305 18.2958 7.20929 18.3267 7.1314 18.3357C7.05352 18.3448 6.97466 18.3316 6.90389 18.2979C6.83313 18.2641 6.77333 18.2111 6.73137 18.1448C6.68941 18.0786 6.66699 18.0018 6.66669 17.9234V12.4384C7.67833 13.0289 8.82867 13.3401 10 13.3401C11.1714 13.3401 12.3217 13.0289 13.3334 12.4384V17.9234C13.3343 18.0018 13.3125 18.0787 13.2707 18.145C13.2288 18.2112 13.1687 18.2639 13.0975 18.2968Z" fill="#050505"/>
</g>
<defs>
<clipPath id="clip0_125_3095">
<rect width="20" height="20" fill="white" transform="translate(0 0.00671387)"/>
</clipPath>
</defs>
</svg>
