<svg width="28" height="28" viewBox="0 0 28 28" fill="none" xmlns="http://www.w3.org/2000/svg">
<g filter="url(#filter0_d_3_238)">
<g clip-path="url(#clip0_3_238)">
<rect x="4" width="20" height="20" rx="10" fill="#050505"/>
<path d="M14.0005 12.9168C13.6481 12.9168 13.3629 12.6368 13.3629 12.2918C13.3629 11.4844 13.9376 10.7465 15.0246 10.1594C15.8344 9.72196 16.2535 8.85493 16.0915 7.95081C15.9419 7.11627 15.2426 6.4309 14.3912 6.28424C13.7769 6.17841 13.1733 6.32257 12.6904 6.69005C12.2164 7.05128 11.9184 7.59166 11.8733 8.17288C11.8465 8.51661 11.5396 8.77493 11.1893 8.74868C10.8382 8.72243 10.5751 8.42245 10.6019 8.0783C10.6741 7.14627 11.1502 6.28049 11.9082 5.70344C12.6784 5.11639 13.6387 4.88598 14.6114 5.05306C15.9819 5.28888 17.1071 6.39173 17.3477 7.73499C17.6015 9.15116 16.915 10.5657 15.6401 11.2544C15.0127 11.5931 14.6381 11.981 14.6381 12.2918C14.6381 12.6368 14.3529 12.9168 14.0005 12.9168ZM13.3629 14.375C13.3629 14.72 13.6485 15 14.0005 15C14.3525 15 14.6381 14.72 14.6381 14.375C14.6381 14.0301 14.3525 13.7501 14.0005 13.7501C13.6485 13.7501 13.3629 14.0301 13.3629 14.375Z" fill="#F5F5F5"/>
</g>
</g>
<defs>
<filter id="filter0_d_3_238" x="0" y="0" width="28" height="28" filterUnits="userSpaceOnUse" color-interpolation-filters="sRGB">
<feFlood flood-opacity="0" result="BackgroundImageFix"/>
<feColorMatrix in="SourceAlpha" type="matrix" values="0 0 0 0 0 0 0 0 0 0 0 0 0 0 0 0 0 0 127 0" result="hardAlpha"/>
<feOffset dy="4"/>
<feGaussianBlur stdDeviation="2"/>
<feComposite in2="hardAlpha" operator="out"/>
<feColorMatrix type="matrix" values="0 0 0 0 0 0 0 0 0 0 0 0 0 0 0 0 0 0 0.25 0"/>
<feBlend mode="normal" in2="BackgroundImageFix" result="effect1_dropShadow_3_238"/>
<feBlend mode="normal" in="SourceGraphic" in2="effect1_dropShadow_3_238" result="shape"/>
</filter>
<clipPath id="clip0_3_238">
<rect x="4" width="20" height="20" rx="10" fill="white"/>
</clipPath>
</defs>
</svg>
