<svg width="20" height="21" viewBox="0 0 20 21" fill="none" xmlns="http://www.w3.org/2000/svg">
<g clip-path="url(#clip0_125_2089)">
<path d="M17.5 3.34005H14.9166C14.7232 2.39956 14.2115 1.5545 13.4677 0.947312C12.7239 0.340122 11.7935 0.00792597 10.8333 0.00671387L9.16662 0.00671387C8.20645 0.00792597 7.27606 0.340122 6.53225 0.947312C5.78844 1.5545 5.2767 2.39956 5.08329 3.34005H2.49996C2.27895 3.34005 2.06698 3.42784 1.9107 3.58413C1.75442 3.74041 1.66663 3.95237 1.66663 4.17338C1.66663 4.39439 1.75442 4.60636 1.9107 4.76264C2.06698 4.91892 2.27895 5.00671 2.49996 5.00671H3.33329V15.84C3.33462 16.9447 3.77403 18.0037 4.55514 18.7849C5.33626 19.566 6.3953 20.0054 7.49996 20.0067H12.5C13.6046 20.0054 14.6637 19.566 15.4448 18.7849C16.2259 18.0037 16.6653 16.9447 16.6666 15.84V5.00671H17.5C17.721 5.00671 17.9329 4.91892 18.0892 4.76264C18.2455 4.60636 18.3333 4.39439 18.3333 4.17338C18.3333 3.95237 18.2455 3.74041 18.0892 3.58413C17.9329 3.42784 17.721 3.34005 17.5 3.34005ZM9.16662 1.67338H10.8333C11.3502 1.67401 11.8542 1.83453 12.2763 2.13292C12.6984 2.43131 13.0178 2.85296 13.1908 3.34005H6.80912C6.98211 2.85296 7.30154 2.43131 7.72361 2.13292C8.14568 1.83453 8.64973 1.67401 9.16662 1.67338ZM15 15.84C15 16.5031 14.7366 17.139 14.2677 17.6078C13.7989 18.0767 13.163 18.34 12.5 18.34H7.49996C6.83692 18.34 6.20103 18.0767 5.73219 17.6078C5.26335 17.139 4.99996 16.5031 4.99996 15.84V5.00671H15V15.84Z" fill="#050505"/>
<path d="M8.33333 15.0068C8.55435 15.0068 8.76631 14.919 8.92259 14.7627C9.07887 14.6064 9.16667 14.3944 9.16667 14.1734V9.17342C9.16667 8.95241 9.07887 8.74045 8.92259 8.58417C8.76631 8.42789 8.55435 8.34009 8.33333 8.34009C8.11232 8.34009 7.90036 8.42789 7.74408 8.58417C7.5878 8.74045 7.5 8.95241 7.5 9.17342V14.1734C7.5 14.3944 7.5878 14.6064 7.74408 14.7627C7.90036 14.919 8.11232 15.0068 8.33333 15.0068Z" fill="#050505"/>
<path d="M11.6667 15.0068C11.8877 15.0068 12.0997 14.919 12.256 14.7627C12.4122 14.6064 12.5 14.3944 12.5 14.1734V9.17342C12.5 8.95241 12.4122 8.74045 12.256 8.58417C12.0997 8.42789 11.8877 8.34009 11.6667 8.34009C11.4457 8.34009 11.2337 8.42789 11.0775 8.58417C10.9212 8.74045 10.8334 8.95241 10.8334 9.17342V14.1734C10.8334 14.3944 10.9212 14.6064 11.0775 14.7627C11.2337 14.919 11.4457 15.0068 11.6667 15.0068Z" fill="#050505"/>
</g>
<defs>
<clipPath id="clip0_125_2089">
<rect width="20" height="20" fill="white" transform="translate(0 0.00671387)"/>
</clipPath>
</defs>
</svg>
