<svg width="18" height="21" viewBox="0 0 18 21" fill="none" xmlns="http://www.w3.org/2000/svg">
<g clip-path="url(#clip0_3_827)">
<path d="M12.3333 13.3401C12.3333 13.5611 12.2455 13.773 12.0892 13.9293C11.9329 14.0856 11.721 14.1734 11.4999 14.1734H9.83328V15.8401C9.83328 16.0611 9.74549 16.273 9.58921 16.4293C9.43293 16.5856 9.22096 16.6734 8.99995 16.6734C8.77894 16.6734 8.56698 16.5856 8.4107 16.4293C8.25442 16.273 8.16662 16.0611 8.16662 15.8401V14.1734H6.49995C6.27894 14.1734 6.06698 14.0856 5.9107 13.9293C5.75442 13.773 5.66662 13.5611 5.66662 13.3401C5.66662 13.119 5.75442 12.9071 5.9107 12.7508C6.06698 12.5945 6.27894 12.5067 6.49995 12.5067H8.16662V10.8401C8.16662 10.619 8.25442 10.4071 8.4107 10.2508C8.56698 10.0945 8.77894 10.0067 8.99995 10.0067C9.22096 10.0067 9.43293 10.0945 9.58921 10.2508C9.74549 10.4071 9.83328 10.619 9.83328 10.8401V12.5067H11.4999C11.721 12.5067 11.9329 12.5945 12.0892 12.7508C12.2455 12.9071 12.3333 13.119 12.3333 13.3401ZM17.3333 8.74422V15.8401C17.332 16.9447 16.8925 18.0038 16.1114 18.7849C15.3303 19.566 14.2713 20.0054 13.1666 20.0067H4.83329C3.72863 20.0054 2.66959 19.566 1.88847 18.7849C1.10736 18.0038 0.667949 16.9447 0.666626 15.8401V4.1734C0.667949 3.06873 1.10736 2.0097 1.88847 1.22858C2.66959 0.447468 3.72863 0.00805629 4.83329 0.00673307H8.59579C9.36213 0.00476064 10.1213 0.154723 10.8293 0.447949C11.5373 0.741175 12.1802 1.17185 12.7208 1.71506L15.6241 4.62006C16.1676 5.16026 16.5986 5.80294 16.892 6.51087C17.1854 7.2188 17.3354 7.97791 17.3333 8.74422ZM11.5424 2.8934C11.2802 2.63936 10.9857 2.42083 10.6666 2.2434V5.84006C10.6666 6.06107 10.7544 6.27304 10.9107 6.42932C11.067 6.5856 11.2789 6.67339 11.4999 6.67339H15.0966C14.9191 6.35438 14.7002 6.06018 14.4458 5.79839L11.5424 2.8934ZM15.6666 8.74422C15.6666 8.60672 15.6399 8.47506 15.6274 8.34006H11.4999C10.8369 8.34006 10.201 8.07667 9.73218 7.60783C9.26334 7.13899 8.99995 6.5031 8.99995 5.84006V1.71256C8.86495 1.70006 8.73245 1.6734 8.59579 1.6734H4.83329C4.17025 1.6734 3.53436 1.93679 3.06552 2.40563C2.59668 2.87447 2.33329 3.51035 2.33329 4.1734V15.8401C2.33329 16.5031 2.59668 17.139 3.06552 17.6078C3.53436 18.0767 4.17025 18.34 4.83329 18.34H13.1666C13.8297 18.34 14.4655 18.0767 14.9344 17.6078C15.4032 17.139 15.6666 16.5031 15.6666 15.8401V8.74422Z" fill="#050505"/>
</g>
<defs>
<clipPath id="clip0_3_827">
<rect width="16.6667" height="20" fill="white" transform="translate(0.666626 0.00671387)"/>
</clipPath>
</defs>
</svg>
