<svg width="20" height="21" viewBox="0 0 20 21" fill="none" xmlns="http://www.w3.org/2000/svg">
<g clip-path="url(#clip0_125_2091)">
<path d="M0.976667 15.9392C0.351502 16.5642 0.000188791 17.4119 0 18.2959L0 20.0067H1.71083C2.59482 20.0066 3.44253 19.6552 4.0675 19.0301L15.1867 7.9109L12.0958 4.82007L0.976667 15.9392Z" fill="#050505"/>
<path d="M19.2875 0.719268C19.0846 0.516131 18.8436 0.354981 18.5784 0.245032C18.3131 0.135083 18.0288 0.0784912 17.7417 0.0784912C17.4545 0.0784912 17.1702 0.135083 16.905 0.245032C16.6397 0.354981 16.3988 0.516131 16.1958 0.719268L13.2742 3.64177L16.365 6.7326L19.2875 3.81094C19.4906 3.60801 19.6518 3.36704 19.7617 3.10179C19.8717 2.83655 19.9283 2.55223 19.9283 2.2651C19.9283 1.97797 19.8717 1.69366 19.7617 1.42841C19.6518 1.16317 19.4906 0.922194 19.2875 0.719268Z" fill="#050505"/>
</g>
<defs>
<clipPath id="clip0_125_2091">
<rect width="20" height="20" fill="white" transform="translate(0 0.00671387)"/>
</clipPath>
</defs>
</svg>
