<svg width="20" height="21" viewBox="0 0 20 21" fill="none" xmlns="http://www.w3.org/2000/svg">
<g clip-path="url(#clip0_125_2090)">
<path d="M0.833333 3.96453H3.11333C3.2922 4.62264 3.68264 5.20361 4.22444 5.6178C4.76623 6.032 5.42927 6.25641 6.11125 6.25641C6.79323 6.25641 7.45627 6.032 7.99806 5.6178C8.53986 5.20361 8.9303 4.62264 9.10917 3.96453H19.1667C19.3877 3.96453 19.5996 3.87673 19.7559 3.72045C19.9122 3.56417 20 3.35221 20 3.1312C20 2.91018 19.9122 2.69822 19.7559 2.54194C19.5996 2.38566 19.3877 2.29786 19.1667 2.29786H9.10917C8.9303 1.63975 8.53986 1.05878 7.99806 0.644588C7.45627 0.230391 6.79323 0.00598145 6.11125 0.00598145C5.42927 0.00598145 4.76623 0.230391 4.22444 0.644588C3.68264 1.05878 3.2922 1.63975 3.11333 2.29786H0.833333C0.61232 2.29786 0.400358 2.38566 0.244078 2.54194C0.0877974 2.69822 0 2.91018 0 3.1312C0 3.35221 0.0877974 3.56417 0.244078 3.72045C0.400358 3.87673 0.61232 3.96453 0.833333 3.96453ZM6.11083 1.67286C6.39926 1.67286 6.68122 1.75839 6.92104 1.91864C7.16086 2.07888 7.34778 2.30664 7.45816 2.57312C7.56854 2.83959 7.59742 3.13281 7.54115 3.4157C7.48488 3.69859 7.34598 3.95844 7.14203 4.16239C6.93808 4.36634 6.67823 4.50524 6.39534 4.56151C6.11245 4.61778 5.81923 4.5889 5.55275 4.47852C5.28628 4.36814 5.05852 4.18122 4.89827 3.9414C4.73803 3.70158 4.6525 3.41963 4.6525 3.1312C4.65294 2.74456 4.80673 2.37388 5.08012 2.10049C5.35352 1.82709 5.72419 1.6733 6.11083 1.67286Z" fill="#050505"/>
<path d="M19.1667 9.17343H16.8867C16.7081 8.51517 16.3178 7.93399 15.7761 7.51962C15.2343 7.10525 14.5712 6.88074 13.8892 6.88074C13.2071 6.88074 12.544 7.10525 12.0023 7.51962C11.4605 7.93399 11.0702 8.51517 10.8917 9.17343H0.833333C0.61232 9.17343 0.400358 9.26123 0.244078 9.41751C0.0877974 9.57379 0 9.78575 0 10.0068C0 10.2278 0.0877974 10.4397 0.244078 10.596C0.400358 10.7523 0.61232 10.8401 0.833333 10.8401H10.8917C11.0702 11.4984 11.4605 12.0795 12.0023 12.4939C12.544 12.9083 13.2071 13.1328 13.8892 13.1328C14.5712 13.1328 15.2343 12.9083 15.7761 12.4939C16.3178 12.0795 16.7081 11.4984 16.8867 10.8401H19.1667C19.3877 10.8401 19.5996 10.7523 19.7559 10.596C19.9122 10.4397 20 10.2278 20 10.0068C20 9.78575 19.9122 9.57379 19.7559 9.41751C19.5996 9.26123 19.3877 9.17343 19.1667 9.17343ZM13.8892 11.4651C13.6007 11.4651 13.3188 11.3796 13.079 11.2193C12.8391 11.0591 12.6522 10.8313 12.5418 10.5648C12.4315 10.2984 12.4026 10.0051 12.4589 9.72226C12.5151 9.43937 12.654 9.17952 12.858 8.97557C13.0619 8.77162 13.3218 8.63272 13.6047 8.57645C13.8875 8.52018 14.1808 8.54906 14.4472 8.65944C14.7137 8.76982 14.9415 8.95674 15.1017 9.19656C15.262 9.43638 15.3475 9.71833 15.3475 10.0068C15.3471 10.3934 15.1933 10.7641 14.9199 11.0375C14.6465 11.3109 14.2758 11.4647 13.8892 11.4651Z" fill="#050505"/>
<path d="M19.1667 16.0484H9.10917C8.9303 15.3902 8.53986 14.8093 7.99806 14.3951C7.45627 13.9809 6.79323 13.7565 6.11125 13.7565C5.42927 13.7565 4.76623 13.9809 4.22444 14.3951C3.68264 14.8093 3.2922 15.3902 3.11333 16.0484H0.833333C0.61232 16.0484 0.400358 16.1361 0.244078 16.2924C0.0877974 16.4487 0 16.6607 0 16.8817C0 17.1027 0.0877974 17.3147 0.244078 17.4709C0.400358 17.6272 0.61232 17.715 0.833333 17.715H3.11333C3.2922 18.3731 3.68264 18.9541 4.22444 19.3683C4.76623 19.7825 5.42927 20.0069 6.11125 20.0069C6.79323 20.0069 7.45627 19.7825 7.99806 19.3683C8.53986 18.9541 8.9303 18.3731 9.10917 17.715H19.1667C19.3877 17.715 19.5996 17.6272 19.7559 17.4709C19.9122 17.3147 20 17.1027 20 16.8817C20 16.6607 19.9122 16.4487 19.7559 16.2924C19.5996 16.1361 19.3877 16.0484 19.1667 16.0484ZM6.11083 18.34C5.8224 18.34 5.54045 18.2545 5.30063 18.0942C5.0608 17.934 4.87389 17.7062 4.76351 17.4398C4.65313 17.1733 4.62425 16.8801 4.68052 16.5972C4.73679 16.3143 4.87568 16.0544 5.07964 15.8505C5.28359 15.6465 5.54344 15.5076 5.82633 15.4514C6.10922 15.3951 6.40244 15.424 6.66891 15.5344C6.93539 15.6447 7.16315 15.8317 7.32339 16.0715C7.48364 16.3113 7.56917 16.5933 7.56917 16.8817C7.56851 17.2683 7.41465 17.6388 7.1413 17.9122C6.86795 18.1855 6.4974 18.3394 6.11083 18.34Z" fill="#050505"/>
</g>
<defs>
<clipPath id="clip0_125_2090">
<rect width="20" height="20" fill="white" transform="translate(0 0.00671387)"/>
</clipPath>
</defs>
</svg>
