<svg width="20" height="20" viewBox="0 0 20 20" fill="none" xmlns="http://www.w3.org/2000/svg">
<path d="M17.9167 12.0833C19.0673 12.0833 20 11.1505 20 9.99995C20 8.84936 19.0673 7.91663 17.9167 7.91663C16.7661 7.91663 15.8334 8.84936 15.8334 9.99995C15.8334 11.1505 16.7661 12.0833 17.9167 12.0833Z" fill="#050505"/>
<path d="M9.99995 12.0833C11.1505 12.0833 12.0833 11.1505 12.0833 9.99995C12.0833 8.84936 11.1505 7.91663 9.99995 7.91663C8.84936 7.91663 7.91663 8.84936 7.91663 9.99995C7.91663 11.1505 8.84936 12.0833 9.99995 12.0833Z" fill="#050505"/>
<path d="M2.08332 12.0833C3.23391 12.0833 4.16664 11.1505 4.16664 9.99995C4.16664 8.84936 3.23391 7.91663 2.08332 7.91663C0.932734 7.91663 0 8.84936 0 9.99995C0 11.1505 0.932734 12.0833 2.08332 12.0833Z" fill="#050505"/>
</svg>
