<svg width="20" height="21" viewBox="0 0 20 21" fill="none" xmlns="http://www.w3.org/2000/svg">
<path d="M15 10.0067C14.996 9.56831 14.8193 9.14915 14.5084 8.84007L10.9334 5.25673C10.7772 5.10152 10.566 5.0144 10.3459 5.0144C10.1257 5.0144 9.91451 5.10152 9.75837 5.25673C9.68027 5.3342 9.61827 5.42637 9.57597 5.52792C9.53366 5.62947 9.51188 5.73839 9.51188 5.8484C9.51188 5.95841 9.53366 6.06733 9.57597 6.16888C9.61827 6.27043 9.68027 6.3626 9.75837 6.44006L12.5 9.1734H4.16671C3.94569 9.1734 3.73373 9.2612 3.57745 9.41748C3.42117 9.57376 3.33337 9.78572 3.33337 10.0067C3.33337 10.2277 3.42117 10.4397 3.57745 10.596C3.73373 10.7523 3.94569 10.8401 4.16671 10.8401H12.5L9.75837 13.5817C9.60146 13.7375 9.51286 13.9493 9.51208 14.1705C9.5113 14.3916 9.59839 14.604 9.75421 14.7609C9.91002 14.9178 10.1218 15.0064 10.3429 15.0072C10.5641 15.008 10.7765 14.9209 10.9334 14.7651L14.5084 11.1817C14.8214 10.8706 14.9982 10.448 15 10.0067Z" fill="#050505"/>
</svg>
