<svg width="20" height="20" viewBox="0 0 20 20" fill="none" xmlns="http://www.w3.org/2000/svg">
<g clip-path="url(#clip0_299_7313)">
<path d="M0.833278 20C1.05427 19.9999 1.2662 19.9121 1.42244 19.7558L6.93828 14.24L7.97828 15.3167C8.76214 16.145 9.84249 16.6287 10.9824 16.6617C11.3625 16.6628 11.7399 16.5988 12.0983 16.4725C12.6521 16.2818 13.1386 15.9345 13.4988 15.4727C13.859 15.0108 14.0774 14.4544 14.1274 13.8708C14.2179 13.0257 14.1552 12.1712 13.9424 11.3483L13.7641 10.48C13.7303 10.3411 13.7328 10.1959 13.7713 10.0583C13.8099 9.92069 13.8831 9.79529 13.9841 9.69416L15.3066 8.37083C15.3588 8.31846 15.4294 8.28855 15.5033 8.2875C15.5292 8.28267 15.556 8.28518 15.5806 8.29475C15.6052 8.30432 15.6266 8.32057 15.6424 8.34166C16.061 8.78554 16.6241 9.06563 17.2307 9.13161C17.8372 9.1976 18.4474 9.04515 18.9516 8.70166C19.2475 8.49074 19.4938 8.21785 19.6735 7.902C19.8531 7.58616 19.9618 7.23495 19.9918 6.87283C20.0219 6.51072 19.9727 6.1464 19.8476 5.80525C19.7225 5.4641 19.5245 5.15433 19.2674 4.8975L15.1666 0.794997C14.7455 0.363414 14.1862 0.0935672 13.5863 0.032635C12.9864 -0.0282972 12.3842 0.123562 11.8849 0.461664C11.589 0.672524 11.3426 0.945362 11.1629 1.26117C10.9832 1.57699 10.8744 1.92818 10.8443 2.2903C10.8141 2.65242 10.8633 3.01676 10.9883 3.35794C11.1134 3.69912 11.3113 4.00894 11.5683 4.26583L11.6316 4.32916C11.6793 4.37724 11.7061 4.44225 11.7061 4.51C11.7061 4.57775 11.6793 4.64275 11.6316 4.69083L10.2983 6.02416C10.196 6.12623 10.0689 6.19995 9.92955 6.23808C9.79017 6.27621 9.64328 6.27745 9.50328 6.24166L8.82244 6.0675C7.98499 5.84878 7.11493 5.78301 6.25411 5.87333C5.64358 5.93656 5.06385 6.17302 4.58326 6.55484C4.10267 6.93665 3.74125 7.4479 3.54161 8.02833C3.32375 8.62479 3.28079 9.27107 3.41779 9.89112C3.55479 10.5112 3.86605 11.0792 4.31494 11.5283L5.77994 13.045L0.244111 18.5775C0.127603 18.694 0.0482646 18.8425 0.016125 19.0041C-0.0160146 19.1658 0.000487826 19.3333 0.0635462 19.4855C0.126605 19.6378 0.233388 19.7679 0.370396 19.8595C0.507404 19.9511 0.668486 20 0.833278 20ZM5.11244 8.58333C5.20635 8.29943 5.38054 8.04883 5.61393 7.86189C5.84731 7.67494 6.12989 7.55966 6.42744 7.53C6.6193 7.51003 6.81206 7.50001 7.00494 7.5C7.47771 7.50002 7.94851 7.5608 8.40578 7.68083L9.09161 7.85583C9.51179 7.96214 9.95235 7.95776 10.3703 7.84311C10.7883 7.72846 11.1695 7.50747 11.4766 7.20166L12.8099 5.86833C13.1697 5.50749 13.3718 5.01872 13.3718 4.50916C13.3718 3.99961 13.1697 3.51084 12.8099 3.15L12.7466 3.08666C12.6603 3.00058 12.594 2.89662 12.5522 2.78211C12.5105 2.6676 12.4944 2.54533 12.505 2.42391C12.5157 2.3025 12.5528 2.1849 12.6139 2.0794C12.6749 1.9739 12.7583 1.88308 12.8583 1.81333C13.0361 1.70568 13.2456 1.66265 13.4514 1.6915C13.6573 1.72034 13.8469 1.81929 13.9883 1.97166L18.0916 6.075C18.1779 6.16108 18.2442 6.26504 18.286 6.37955C18.3277 6.49406 18.3438 6.61633 18.3332 6.73775C18.3225 6.85916 18.2854 6.97676 18.2244 7.08226C18.1633 7.18776 18.0799 7.27858 17.9799 7.34833C17.8002 7.45745 17.588 7.5005 17.38 7.47008C17.1719 7.43966 16.9809 7.33767 16.8399 7.18166C16.6685 7.00488 16.4633 6.86424 16.2366 6.76805C16.0099 6.67187 15.7662 6.6221 15.5199 6.62166C15.0004 6.62403 14.5022 6.82845 14.1308 7.19166L12.8091 8.51416C12.509 8.81448 12.2903 9.18628 12.1737 9.59452C12.057 10.0027 12.0463 10.434 12.1424 10.8475L12.3249 11.7292C12.4931 12.372 12.5442 13.0399 12.4758 13.7008C12.4559 13.9704 12.3572 14.2281 12.192 14.4421C12.0268 14.656 11.8024 14.8167 11.5466 14.9042C11.1203 15.0162 10.671 15.0053 10.2507 14.8725C9.83035 14.7398 9.45623 14.4907 9.17161 14.1542L5.50494 10.3625C5.27631 10.1345 5.11782 9.84569 5.04826 9.53037C4.97869 9.21504 5.00097 8.88638 5.11244 8.58333Z" fill="#050505"/>
</g>
<defs>
<clipPath id="clip0_299_7313">
<rect width="20" height="20" fill="white"/>
</clipPath>
</defs>
</svg>
