<svg width="20" height="20" viewBox="0 0 20 20" fill="none" xmlns="http://www.w3.org/2000/svg">
<g clip-path="url(#clip0_299_7083)">
<path d="M19.9999 9.5833V20H17.4999V9.5833C17.4999 9.35414 17.3133 9.16664 17.0833 9.16664H9.61578L14.2066 14.1058L12.3758 15.8083L6.43744 9.41747C5.62411 8.60414 5.62411 7.22914 6.46911 6.38414L12.3474 0.0516357L14.1791 1.75247L9.61578 6.6658H17.0833C18.6916 6.6658 19.9999 7.97414 19.9999 9.58247V9.5833ZM8.34661 1.7533L6.51411 0.0516357L0.634943 6.38414C-0.209224 7.22914 -0.209224 8.60414 0.603276 9.41747L6.54161 15.8083L8.37244 14.1058L2.62161 7.91747L8.34661 1.7533Z" fill="#050505"/>
</g>
<defs>
<clipPath id="clip0_299_7083">
<rect width="20" height="20" fill="white"/>
</clipPath>
</defs>
</svg>
