<svg width="20" height="21" viewBox="0 0 20 21" fill="none" xmlns="http://www.w3.org/2000/svg">
<g clip-path="url(#clip0_3_832)">
<path d="M0.145774 3.09922C-0.177559 2.21422 0.065774 1.23422 0.766608 0.603383C1.46577 -0.0249503 2.46161 -0.166617 3.30661 0.244216L18.3816 7.28088C19.1899 7.65921 19.7683 8.35005 20.0024 9.17505H3.37577L0.193274 3.20505C0.175774 3.17088 0.159941 3.13505 0.145774 3.09922ZM3.38744 10.8425L0.259941 16.8217C0.242441 16.855 0.227441 16.8884 0.214941 16.9234C-0.107559 17.8092 0.138274 18.7875 0.839108 19.4175C1.27327 19.8067 1.82161 20.0075 2.37327 20.0075C2.71411 20.0075 3.05577 19.9309 3.37411 19.775L18.3833 12.7434C19.1941 12.3634 19.7716 11.67 20.0041 10.8434H3.38744V10.8425Z" fill="#050505"/>
</g>
<defs>
<clipPath id="clip0_3_832">
<rect width="20" height="20" fill="white" transform="translate(0 0.00671387)"/>
</clipPath>
</defs>
</svg>
