<svg width="40" height="40" viewBox="0 0 40 40" fill="none" xmlns="http://www.w3.org/2000/svg">
<rect width="40" height="40" rx="20" fill="#F5F5F5"/>
<path d="M25.547 10.7747L15.387 20.9347C14.999 21.3207 14.6913 21.7798 14.4819 22.2854C14.2725 22.7911 14.1655 23.3333 14.167 23.8806V24.9997C14.167 25.2207 14.2548 25.4327 14.4111 25.589C14.5674 25.7453 14.7793 25.8331 15.0003 25.8331H16.1195C16.6668 25.8346 17.209 25.7276 17.7146 25.5182C18.2203 25.3087 18.6794 25.0011 19.0653 24.6131L29.2253 14.4531C29.7123 13.9649 29.9858 13.3035 29.9858 12.6139C29.9858 11.9243 29.7123 11.2629 29.2253 10.7747C28.7301 10.3013 28.0713 10.0371 27.3862 10.0371C26.701 10.0371 26.0423 10.3013 25.547 10.7747ZM28.047 13.2747L17.887 23.4347C17.4171 23.9017 16.782 24.1647 16.1195 24.1664H15.8337V23.8806C15.8354 23.2181 16.0983 22.583 16.5653 22.1131L26.7253 11.9531C26.9033 11.783 27.14 11.6881 27.3862 11.6881C27.6323 11.6881 27.869 11.783 28.047 11.9531C28.2219 12.1285 28.3202 12.3661 28.3202 12.6139C28.3202 12.8617 28.2219 13.0993 28.047 13.2747Z" fill="#050505"/>
<path d="M29.1667 17.4825C28.9456 17.4825 28.7337 17.5703 28.5774 17.7266C28.4211 17.8829 28.3333 18.0948 28.3333 18.3158V22.5H25C24.3369 22.5 23.7011 22.7634 23.2322 23.2322C22.7634 23.7011 22.5 24.3369 22.5 25V28.3333H14.1667C13.5036 28.3333 12.8677 28.0699 12.3989 27.6011C11.9301 27.1322 11.6667 26.4964 11.6667 25.8333V14.1667C11.6667 13.5036 11.9301 12.8677 12.3989 12.3989C12.8677 11.9301 13.5036 11.6667 14.1667 11.6667H21.7017C21.9227 11.6667 22.1346 11.5789 22.2909 11.4226C22.4472 11.2663 22.535 11.0543 22.535 10.8333C22.535 10.6123 22.4472 10.4004 22.2909 10.2441C22.1346 10.0878 21.9227 10 21.7017 10H14.1667C13.062 10.0013 12.003 10.4407 11.2218 11.2218C10.4407 12.003 10.0013 13.062 10 14.1667L10 25.8333C10.0013 26.938 10.4407 27.997 11.2218 28.7781C12.003 29.5592 13.062 29.9987 14.1667 30H23.6192C24.1666 30.0015 24.7089 29.8945 25.2147 29.6851C25.7205 29.4757 26.1797 29.1681 26.5658 28.78L28.7792 26.565C29.1673 26.179 29.475 25.72 29.6846 25.2143C29.8941 24.7087 30.0013 24.1665 30 23.6192V18.3158C30 18.0948 29.9122 17.8829 29.7559 17.7266C29.5996 17.5703 29.3877 17.4825 29.1667 17.4825ZM25.3875 27.6017C25.0525 27.9358 24.6289 28.1672 24.1667 28.2683V25C24.1667 24.779 24.2545 24.567 24.4107 24.4107C24.567 24.2545 24.779 24.1667 25 24.1667H28.2708C28.1677 24.6279 27.9367 25.0508 27.6042 25.3867L25.3875 27.6017Z" fill="#050505"/>
</svg>
