<svg width="20" height="21" viewBox="0 0 20 21" fill="none" xmlns="http://www.w3.org/2000/svg">
<g clip-path="url(#clip0_3_616)">
<path d="M13.8929 20.0067C13.7832 20.0073 13.6745 19.9863 13.573 19.9448C13.4715 19.9034 13.3791 19.8423 13.3012 19.765L6.49291 12.9567C6.10489 12.5697 5.79703 12.1099 5.58698 11.6036C5.37692 11.0974 5.2688 10.5548 5.2688 10.0067C5.2688 9.45864 5.37692 8.91596 5.58698 8.40975C5.79703 7.90355 6.10489 7.44375 6.49291 7.0567L13.3012 0.248372C13.3789 0.170673 13.4712 0.109039 13.5727 0.0669891C13.6742 0.0249389 13.783 0.0032959 13.8929 0.0032959C14.0028 0.0032959 14.1116 0.0249389 14.2131 0.0669891C14.3146 0.109039 14.4069 0.170673 14.4846 0.248372C14.5623 0.326071 14.6239 0.418313 14.666 0.519831C14.708 0.621349 14.7297 0.730156 14.7297 0.840039C14.7297 0.949921 14.708 1.05873 14.666 1.16025C14.6239 1.26176 14.5623 1.35401 14.4846 1.4317L7.67625 8.24004C7.20808 8.70879 6.94511 9.3442 6.94511 10.0067C6.94511 10.6692 7.20808 11.3046 7.67625 11.7734L14.4846 18.5817C14.5627 18.6592 14.6247 18.7513 14.667 18.8529C14.7093 18.9544 14.7311 19.0634 14.7311 19.1734C14.7311 19.2834 14.7093 19.3923 14.667 19.4938C14.6247 19.5954 14.5627 19.6876 14.4846 19.765C14.4067 19.8423 14.3144 19.9034 14.2128 19.9448C14.1113 19.9863 14.0026 20.0073 13.8929 20.0067Z" fill="#050505"/>
</g>
<defs>
<clipPath id="clip0_3_616">
<rect width="19.4623" height="20.0034" fill="white" transform="translate(0.268799 0.0032959)"/>
</clipPath>
</defs>
</svg>
