<?xml version="1.0" standalone="no"?>
<!DOCTYPE svg PUBLIC "-//W3C//DTD SVG 20010904//EN"
 "http://www.w3.org/TR/2001/REC-SVG-20010904/DTD/svg10.dtd">
<svg version="1.0" xmlns="http://www.w3.org/2000/svg"
 width="239.000000pt" height="20.000000pt" viewBox="0 0 239.000000 20.000000"
 preserveAspectRatio="xMidYMid meet">

<g transform="translate(0.000000,20.000000) scale(0.100000,-0.100000)"
fill="#000000" stroke="none">
<path d="M856 187 c-16 -11 -18 -24 -14 -75 6 -82 24 -102 93 -102 81 0 100
20 100 107 l0 68 -32 3 -33 3 0 -54 c0 -36 -5 -59 -15 -67 -24 -20 -35 -2 -35
61 0 32 -4 59 -9 59 -5 0 -15 2 -23 5 -7 3 -22 -1 -32 -8z"/>
<path d="M2240 192 c-29 -6 -35 -11 -35 -32 0 -21 5 -26 33 -28 l34 -3 -7 -60
-7 -59 37 0 36 0 -7 60 -7 60 32 0 c28 0 31 3 31 30 0 22 -5 30 -17 30 -10 0
-34 2 -53 4 -19 2 -51 1 -70 -2z"/>
<path d="M57 173 c-19 -22 -51 -129 -43 -149 8 -21 44 -17 51 6 9 28 71 28 80
0 6 -20 21 -25 48 -14 12 4 13 13 6 46 -13 53 -37 110 -52 120 -22 14 -74 8
-90 -9z m67 -49 c11 -29 6 -44 -13 -44 -25 0 -32 11 -24 38 6 26 28 29 37 6z"/>
<path d="M224 159 c3 -17 6 -58 6 -90 l0 -59 30 0 c30 0 31 1 24 35 -8 45 6
45 41 -1 19 -24 33 -34 48 -32 20 3 22 10 25 91 l3 87 -26 0 c-23 0 -25 -4
-25 -40 0 -47 -26 -56 -36 -12 -10 41 -23 52 -61 52 -34 0 -35 -1 -29 -31z"/>
<path d="M428 183 c-2 -5 -2 -45 0 -90 l4 -83 30 0 c28 0 30 2 25 30 -9 43 8
45 39 5 48 -64 84 -36 84 65 0 64 -7 80 -36 80 -21 0 -24 -4 -24 -40 0 -22 -5
-40 -11 -40 -6 0 -18 18 -26 40 -14 35 -20 40 -49 40 -18 0 -34 -3 -36 -7z"/>
<path d="M650 168 c-22 -24 -28 -95 -10 -128 23 -43 134 -45 166 -3 21 28 18
109 -6 133 -30 30 -121 28 -150 -2z m110 -39 c7 -11 9 -32 6 -45 -5 -20 -13
-24 -41 -24 -28 0 -36 4 -41 24 -13 55 51 93 76 45z"/>
<path d="M1063 118 c-2 -93 2 -108 33 -108 21 0 24 5 24 35 0 43 13 45 37 5
20 -35 48 -47 68 -30 11 9 15 35 15 91 l0 79 -29 0 c-28 0 -30 -2 -33 -47 l-3
-48 -22 48 c-20 42 -26 47 -56 47 l-33 0 -1 -72z"/>
<path d="M1289 171 c-19 -16 -24 -29 -24 -69 0 -75 43 -110 118 -95 21 4 27
11 27 32 0 24 -3 26 -42 26 -40 0 -43 2 -46 28 -5 41 15 60 55 54 30 -5 33 -3
33 19 0 22 -4 24 -49 24 -33 0 -56 -6 -72 -19z"/>
<path d="M1440 101 l0 -89 31 -7 c17 -4 46 -4 65 -1 27 6 34 12 34 31 0 21 -3
23 -40 18 -33 -5 -40 -3 -40 11 0 10 9 16 25 16 35 0 33 28 -2 32 -46 5 -36
33 12 33 34 0 40 3 43 23 3 21 0 22 -62 22 l-66 0 0 -89z"/>
<path d="M1604 100 l0 -90 28 0 c27 0 28 2 28 45 0 51 4 54 31 23 l19 -23 19
23 c27 31 31 28 31 -23 0 -43 1 -45 30 -45 l30 0 0 71 c0 110 -25 136 -77 79
-14 -16 -29 -30 -32 -30 -3 0 -14 14 -23 30 -14 24 -24 30 -50 30 l-33 0 -1
-90z"/>
<path d="M1850 101 l0 -89 31 -7 c17 -4 46 -4 65 -1 27 6 34 12 34 30 0 20 -5
23 -40 22 -43 -1 -56 17 -15 22 33 4 33 32 1 32 -14 0 -28 5 -32 11 -10 17 17
30 49 25 23 -5 27 -2 27 19 0 24 -3 25 -60 25 l-60 0 0 -89z"/>
<path d="M2006 113 c2 -109 0 -105 32 -101 24 3 27 7 24 36 -4 41 6 41 41 -3
29 -37 61 -46 71 -19 3 9 6 49 6 90 l0 74 -29 0 c-28 0 -30 -2 -33 -47 l-3
-48 -22 48 c-20 42 -26 47 -56 47 l-33 0 2 -77z"/>
</g>
</svg>
